Haqeeqat 1995 DvDrip 1CD X264 AAC [RRG DBB][DADA]



-: Cover :- 
 
http://desibbrg.net/imghost/show.php?img=430135_Haqeeqat.1995.DvDrip.1CD.X264.AAC.RRG.DADA..jpg.html



-: Screens :-

  
http://desibbrg.net/imghost/show.php?img=430139_Haqeeqat.1995.DvDrip.1CD.X264.AAC.RRG.DADA.DBBIANS.Comthumbs.jpg.html


-: Info :-  


Format                           : MP4 Video
File size                        : 829 MiB
Duration                         : 2h 44mn
Overall bit rate                 : 705 Kbps


Video
Format                           : AVC
Format/Info                      : Advanced Video Codec
Format profile                   : Main@L3.0
Format settings, CABAC           : Yes
Format settings, ReFrames        : 3 frames
Duration                         : 2h 44mn
Bit rate                         : 568 Kbps
Width                            : 640 pixels
Height                           : 480 pixels
Display aspect ratio             : 4:3
Frame rate mode                  : Constant
Frame rate                       : 25.000 fps
Color space                      : YUV
Chroma subsampling               : 4:2:0
Bit depth                        : 8 bits
Scan type                        : Progressive
Bits/(Pixel*Frame)               : 0.074
Stream size                      : 668 MiB (81%)

Audio
Format                           : AAC
Format/Info                      : Advanced Audio Codec
Format version                   : Version 4
Format profile                   : LC
Format settings, SBR             : No
Duration                         : 2h 44mn
Bit rate                         : 129 Kbps
Channel(s)                       : 2 channels
Channel positions                : Front: L R
Sampling rate                    : 44.1 KHz
Bit depth                        : 16 bits
Stream size                      : 151 MiB (18%)
 
http://www.imdb.com/title/tt0286672/

    Genres:
Indian Cinema, Action & Adventure, Drama
    Language:
Hindi
    Running time:
2:44:25
    Released:
Dec 20, 1995

Cast & Crew
Cast

    Ajay Devgn
    Tabu
    Aruna Irani
    Mohan Joshi
    Johnny Lever

Directors

    Sandesh Kohli

Producers

    N.R. Pachisia

Writers

    Rajeev Kaul




After her husband, Ravi Malhotra, is killed, Sudha lives the life of a widow with her brother, Mahesh, and Bhabhi, Kamini. A new tenant, Ajay, comes to her rescue when she is molested by Bhavani's brother, both fall in love and decide to get married. Kamini initially opposes this match, but subsequently relents and both get married. Shortly thereafter she gets pregnant and it is then she finds out that Ajay is not who he claims to be, and may have been responsible for killing her husband. 
